<?xml version="1.0" encoding="utf-8"?>
<!-- Generator: Adobe Illustrator 27.1.0, SVG Export Plug-In . SVG Version: 6.00 Build 0)  -->
<svg version="1.1" id="Capa_1" xmlns="http://www.w3.org/2000/svg" xmlns:xlink="http://www.w3.org/1999/xlink" x="0px" y="0px"
	 viewBox="0 0 817.89 264" style="enable-background:new 0 0 817.89 264;" xml:space="preserve">
<style type="text/css">
	.st0{display:none;}
	.st1{display:inline;fill:#0052F7;}
	.st2{fill:#FCFCFC;}
	.st3{fill:#FFFFFF;}
	.st4{font-family:'Oduda-Bold';}
	.st5{font-size:106.5707px;}
</style>
<g id="Capa_2_00000102521656323883303460000008524939893177047690_" class="st0">
	<rect x="-87.45" y="-368" class="st1" width="1000" height="1000"/>
</g>
<g id="Capa_1_00000101814104962871436650000009759500690104439687_">
	<g id="asasasaas">
	</g>
	<g>
		<g>
			<g>
				<g>
					<path class="st2" d="M34.6,100.5c16.87-15.2,45.01-34.12,68.39-33.88c20.7,0.39,32.04,15.76,33.63,35.1
						c0.91,10.16-0.22,20.08-1.93,29.98c-2.59,14.86-6.83,29.45-10.27,44c-1.14,5.29-2.55,10.92-2.52,16.23c0,0.03,0,0.06,0,0.1
						c0,0-0.01,0-0.02,0c-0.13-0.33-0.25-0.73-0.8-1.69c-0.49-0.84-1.42-2.02-2.65-2.97l-1.55-1.13c-1.67-1.08-3.69-1.75-5.67-1.7
						c-1.08,0.05-1.18,0.23-0.88,0.18c1.32-0.26,3.2-1.01,4.72-1.77c2.09-1.02,4.45-2.3,6.84-3.71c4.25-2.45,10.91-6.75,15.24-9.42
						c13.24-7.96,31.47-20,48.07-18.19c8.74,0.99,15.79,7.01,18.44,15.04c2.43,7.4,1.71,15.4,0.15,22.81
						c-2.09,9.57-5.73,18.83-10.19,27.45l-2.1-0.46c1.83-9.04,3.35-18.15,3.66-27.35c0.32-10.7-1.02-27.32-15.97-23.01
						c-8.68,2.56-16.19,8.04-23.62,13.22c-10.02,7.12-19.88,15.19-30.61,21.36c-5.6,3.02-13.33,6.99-19.58,3.16
						c-3.15-2.39-4.34-6.44-4.67-10.16c-2.64-25.68,30.37-89.36,11.43-107.48c-12.03-10.61-39.98,0.45-53.28,5.64
						c-7.89,3.21-15.64,6.81-23.3,10.58L34.6,100.5L34.6,100.5z"/>
				</g>
			</g>
			<path class="st3" d="M29.53,129.71c0,7.5-6.08,13.58-13.58,13.58c-18.01-0.72-18.01-26.45,0-27.16
				C23.45,116.13,29.53,122.21,29.53,129.71z"/>
			<path class="st2" d="M244.63,129.71c0,7.5-6.08,13.58-13.58,13.58c-18.01-0.72-18.01-26.45,0-27.16
				C238.55,116.13,244.63,122.21,244.63,129.71z"/>
			<g>
				<path class="st3" d="M140.48,28.69c0,10.61-8.6,19.2-19.2,19.2c-25.47-1.01-25.47-37.4,0-38.41
					C131.88,9.48,140.48,18.08,140.48,28.69z"/>
				<path class="st3" d="M134.87,240.94c0,7.5-6.08,13.58-13.58,13.58c-18.01-0.72-18.01-26.45,0-27.16
					C128.79,227.36,134.87,233.44,134.87,240.94z"/>
			</g>
		</g>
		<text transform="matrix(1 0 0 1 291.5251 163.3555)" class="st3 st4 st5">Indesability</text>
	</g>
</g>
</svg>
